<svg width="63" height="63" fill="none" xmlns="http://www.w3.org/2000/svg"><path d="M34.503 33.36a.624.624 0 00-.768-.432l-.304.083a.624.624 0 10.317 1.204c.108-.028.215-.058.322-.087a.623.623 0 00.433-.767z" fill="#408F95"/><path d="M61.054 37.23c-2.568.641-5.259.6-7.807-.117a14.17 14.17 0 00.701-3.886c.173-4.664-1.925-8.513-6.066-11.132a19.541 19.541 0 00-6.287-2.542 38.634 38.634 0 00-3.253-.547c.194-.743.437-1.473.728-2.184a.624.624 0 00-.775-.839 16.819 16.819 0 00-7.587 5.367c-2.469.281-4.39 1.278-5.56 2.887a1.06 1.06 0 00-.013.02c-.123.183-2.828 4.132-7.552 3.655 1.573-1.463 4.422-4.694 5.13-9.407.935-6.22-.754-10.714-1.829-12.82 2.007.693 5.694 2.683 7.33 8.154.067.25.819 2.842 3.734 4.58a.624.624 0 00.638-1.07c-2.538-1.514-3.162-3.81-3.167-3.831a.409.409 0 00-.007-.026C26.886 5.03 19.96 4.13 19.666 4.095a.624.624 0 00-.578.983c.037.05 3.61 5.144 2.392 13.242-.89 5.93-5.629 9.431-5.676 9.466a.624.624 0 00.211 1.11 9.35 9.35 0 002.322.3c4.796 0 7.623-3.942 7.824-4.232.776-1.065 1.94-1.788 3.468-2.16a22.934 22.934 0 00-3.102 6.874 9.006 9.006 0 01-1.245 2.823 7.835 7.835 0 01-1.369 1.56 76.873 76.873 0 01-10.471-.693c-8.764-.934-12.055 3.738-12.191 3.938a.623.623 0 00-.08.539 24.523 24.523 0 004.71 8.497c2.269 3.974 6.643 7.146 9.923 9.11 3.679 2.205 8.97 3.457 12.208 3.457a23.914 23.914 0 0010.783-2.597c1.194.802 3.255 1.755 6.31 1.755a17.536 17.536 0 004.106-.519.624.624 0 00.222-1.108c-.015-.01-1.496-1.118-2.698-3.34a.623.623 0 10-1.096.594 13.192 13.192 0 002.102 2.887c-3.706.646-6.196-.135-7.671-.95 4.99-2.839 8.298-6.774 9.69-8.649.24.013.483.02.732.02 1.57.015 3.127-.291 4.575-.899 3.072-1.317 5.345-4.034 6.754-8.072a.623.623 0 00-.768-.802l.001.001zM28.011 57.664c-2.43 0-8.076-1.189-11.567-3.28-3.048-1.826-7.072-4.721-9.265-8.293 1.106-.898 4.932-3.288 11.22.184.138.074 3.467 1.834 8.46 2.674 4.554.766 11.38.857 18.178-2.982 1.055.407 2.151.698 3.27.867-2.65 3.373-9.712 10.83-20.296 10.83zm26.575-12.708c-4.433 1.907-9.285-.227-9.333-.249a.613.613 0 00-.57.03c-6.55 3.801-13.172 3.724-17.575 2.99-4.802-.8-8.09-2.534-8.115-2.547-4.333-2.393-7.634-2.186-9.64-1.59a8.596 8.596 0 00-2.906 1.49 24.135 24.135 0 01-3.986-7.302c.75-.886 3.864-3.912 10.836-3.173.56.084 9.866 1.433 17.73.178a.623.623 0 00-.198-1.231c-1.7.26-3.416.418-5.137.471.221-.264.429-.539.622-.824a10.254 10.254 0 001.42-3.212c.564-2.193 2.873-9.256 9.692-12.32-.884 2.699-2.238 8.753 1.986 11.99-.751.961-1.851 1.773-3.297 2.424a.623.623 0 10.512 1.136c2.815-1.267 4.514-3.11 5.05-5.476a.35.35 0 00.006-.028c.018-.102.416-2.512-1.991-4.424a.624.624 0 00-.775.977c1.755 1.393 1.562 3.064 1.54 3.219a5.45 5.45 0 01-.385 1.106c-2.606-2.1-2.538-5.697-2.014-8.363a37.608 37.608 0 013.303.55 18.573 18.573 0 015.886 2.39c3.776 2.402 5.611 5.77 5.454 10.012a12.93 12.93 0 01-.633 3.524c-.48-.195-.946-.42-1.398-.673a.624.624 0 00-.611 1.087c4.026 2.262 8.194 1.927 10.177 1.573-1.293 3.101-3.19 5.206-5.65 6.264z" fill="#408F95"/><path d="M19.741 38.134l-.748.3a.623.623 0 10.463 1.157l.748-.3a.625.625 0 00.35-.811.62.62 0 00-.813-.346zm12.669.985a.623.623 0 00-1.136-.514c-.058.127-1.383 3.131.972 5.64a.658.658 0 00.881.027.621.621 0 00.028-.88c-1.772-1.888-.79-4.171-.745-4.273zm3.552-.691a.623.623 0 10-1.136-.514c-.057.127-1.382 3.132.973 5.64.123.13.648.225.88.028a.614.614 0 00.029-.881c-1.772-1.887-.792-4.168-.746-4.273zm3.206-1.328a.623.623 0 00-1.135-.514c-.058.127-1.383 3.132.972 5.64.122.13.644.24.88.028a.617.617 0 00.028-.881c-1.772-1.889-.789-4.174-.745-4.273z" fill="#408F95"/></svg>