<svg width="198" height="35" viewBox="0 0 198 35" fill="none" xmlns="http://www.w3.org/2000/svg">
<path d="M80.9519 30.22C82.4727 30.22 83.7733 29.92 84.994 29.35L84.6038 33.73C83.173 34.34 81.5622 34.64 80.0915 34.64C75.229 34.64 72.1875 32.21 72.1875 27.26V6.73L77.6102 5.98999V11.89H85.034L84.6438 15.93H77.6102V26.61C77.6102 29.34 79.171 30.21 80.9519 30.21V30.22Z" fill="black"/>
<path d="M0.501404 33.75V2.77002H18.6105V7.72002H6.22429V15.6H16.8997V20.6H6.22429V28.79H18.6105V33.74H0.501404V33.75Z" fill="black"/>
<path d="M35.1588 33.75L30.7866 26.05H30.4765L26.1043 33.75H20.4714L27.3649 22.09L20.6515 10.79H26.5945L30.7366 18.08H31.0067L35.1488 10.79H40.7817L34.1583 22.05L41.0518 33.76H35.1488H35.1588V33.75Z" fill="black"/>
<path d="M55.159 33.9299C54.0784 34.0499 53.0579 34.1099 52.0974 34.1099C49.5161 34.1099 47.6052 33.6899 46.3745 32.8499C45.1439 32.0099 44.3435 30.7899 43.9833 29.1799C43.6231 27.5799 43.4431 25.2699 43.4431 22.2699C43.4431 19.2699 43.6432 17.0299 44.0534 15.3799C44.4636 13.7299 45.274 12.4899 46.4846 11.6699C47.7052 10.8399 49.5361 10.4299 52.0074 10.4299C53.0279 10.4299 54.0684 10.4899 55.1389 10.6099C56.1995 10.7299 57.0699 10.8999 57.7303 11.0999V15.3299C56.4396 15.0899 55.0089 14.9699 53.4481 14.9699C52.0374 14.9699 51.0269 15.1399 50.4066 15.4899C49.7862 15.8399 49.386 16.4999 49.1859 17.4699C48.9858 18.4499 48.8958 20.0399 48.8958 22.2599C48.8958 24.4799 48.9958 26.1199 49.216 27.0999C49.4261 28.0799 49.8363 28.7299 50.4566 29.0599C51.0669 29.3899 52.0874 29.5499 53.4981 29.5499C55.0589 29.5499 56.5296 29.4499 57.9103 29.2399V33.4299C57.16 33.6399 56.2395 33.8099 55.159 33.9299Z" fill="black"/>
<path d="M62.3226 5.43005V0.300049H67.8654V5.43005H62.3226ZM62.3726 33.75V10.79H67.8253V33.75H62.3726Z" fill="black"/>
<path d="M105.884 24.0199H93.3182C93.3182 25.8199 93.4182 27.0699 93.6083 27.7799C93.7984 28.4899 94.2686 28.9699 95.009 29.2199C95.7494 29.4799 97.03 29.5999 98.861 29.5999C100.812 29.5999 102.913 29.4799 105.164 29.2399V33.4299C104.294 33.6399 103.153 33.8099 101.742 33.9299C100.332 34.0499 98.961 34.1099 97.6404 34.1099C94.6689 34.1099 92.4978 33.7299 91.1271 32.9599C89.7564 32.1899 88.8759 31.0199 88.4657 29.4499C88.0555 27.8699 87.8554 25.4999 87.8554 22.3099C87.8554 19.1199 88.0555 16.8699 88.4657 15.2599C88.8759 13.6499 89.7364 12.4499 91.057 11.6399C92.3777 10.8299 94.4387 10.4199 97.2301 10.4199C100.022 10.4199 101.933 10.8099 103.153 11.5899C104.374 12.3699 105.124 13.5299 105.424 15.0799C105.724 16.6299 105.874 19.0299 105.874 22.3099V24.0199H105.884ZM94.6188 15.2899C94.1086 15.5599 93.7684 16.0599 93.6083 16.7799C93.4382 17.4999 93.3482 18.6899 93.3182 20.3399H100.752C100.752 18.6899 100.652 17.4899 100.462 16.7399C100.262 15.9899 99.9215 15.4999 99.4212 15.2499C98.921 15.0099 98.1706 14.8899 97.1501 14.8899C95.9795 14.8899 95.1391 15.0199 94.6288 15.2999H94.6188V15.2899Z" fill="black"/>
<path d="M125.945 33.8999C124.714 34.0399 123.553 34.0999 122.473 34.0999C119.141 34.0999 116.7 33.6499 115.149 32.7499C113.598 31.8499 112.568 30.3199 112.038 28.1599C111.507 25.9999 111.247 22.6999 111.247 18.2599C111.247 13.8199 111.507 10.5199 112.038 8.37992C112.558 6.22992 113.608 4.69992 115.169 3.78992C116.73 2.86992 119.161 2.41992 122.463 2.41992C123.603 2.41992 124.774 2.49993 125.975 2.64993C127.175 2.79993 128.136 2.97993 128.856 3.18993V7.77992C126.575 7.50992 124.874 7.36993 123.763 7.36993C121.512 7.36993 119.952 7.58992 119.081 8.01992C118.211 8.45992 117.65 9.36992 117.39 10.7699C117.13 12.1699 117.01 14.6599 117.01 18.2699C117.01 21.8799 117.14 24.3699 117.39 25.7699C117.64 27.1699 118.211 28.0799 119.081 28.5199C119.952 28.9599 121.512 29.1699 123.763 29.1699C125.504 29.1699 127.245 29.0399 128.986 28.7599V33.3999C128.176 33.6099 127.155 33.7799 125.925 33.9199L125.945 33.8999Z" fill="black"/>
<path d="M135.9 33.0899C134.609 32.4099 133.779 31.2999 133.418 29.7599C133.058 28.2199 132.878 25.7199 132.878 22.2599C132.878 18.7999 133.058 16.2699 133.418 14.7199C133.779 13.1699 134.609 12.0699 135.9 11.4099C137.19 10.7499 139.311 10.4199 142.253 10.4199C145.194 10.4199 147.265 10.7499 148.556 11.4099C149.847 12.0699 150.677 13.1799 151.037 14.7399C151.397 16.2999 151.578 18.8099 151.578 22.2599C151.578 25.7099 151.397 28.2099 151.037 29.7599C150.677 31.3099 149.847 32.4199 148.556 33.0899C147.265 33.7599 145.164 34.0999 142.253 34.0999C139.341 34.0999 137.19 33.7599 135.9 33.0899ZM144.994 29.1099C145.504 28.8099 145.825 28.2099 145.945 27.3099C146.065 26.4099 146.125 24.7299 146.125 22.2699C146.125 19.8099 146.065 18.0899 145.945 17.2099C145.825 16.3299 145.514 15.7299 145.024 15.4299C144.524 15.1299 143.604 14.9799 142.253 14.9799C140.902 14.9799 139.972 15.1299 139.461 15.4299C138.951 15.7299 138.631 16.3199 138.511 17.2099C138.391 18.0999 138.331 19.7799 138.331 22.2699C138.331 24.7599 138.391 26.4099 138.511 27.3099C138.631 28.2099 138.941 28.8099 139.461 29.1099C139.972 29.4099 140.902 29.5599 142.253 29.5599C143.604 29.5599 144.494 29.4099 145.004 29.1099H144.994Z" fill="black"/>
<path d="M158.561 33.07C157.571 32.38 156.85 31.19 156.4 29.49C155.95 27.79 155.72 25.4 155.72 22.31C155.72 19.22 155.94 16.87 156.37 15.17C156.8 13.47 157.511 12.26 158.491 11.52C159.471 10.78 160.822 10.42 162.573 10.42C164.014 10.42 165.214 10.64 166.175 11.07C167.135 11.51 167.886 12.25 168.426 13.3H168.746V0.290039H174.149V33.74H169.106L168.926 30.9H168.606C167.736 33.03 165.765 34.1 162.703 34.1C160.932 34.1 159.552 33.76 158.561 33.06V33.07ZM167.145 28.89C167.646 28.62 168.006 28.17 168.246 27.54C168.426 27 168.556 26.32 168.626 25.49C168.696 24.67 168.736 23.59 168.736 22.27C168.736 21.04 168.716 20.06 168.666 19.32C168.616 18.58 168.506 17.96 168.326 17.45C168.116 16.67 167.756 16.11 167.245 15.78C166.735 15.45 165.985 15.28 164.994 15.28C163.764 15.28 162.903 15.42 162.403 15.71C161.913 16 161.573 16.6 161.412 17.51C161.242 18.43 161.162 20.01 161.162 22.26C161.162 24.51 161.242 26.14 161.412 27.06C161.573 27.98 161.913 28.58 162.403 28.86C162.903 29.15 163.764 29.29 164.994 29.29C165.925 29.29 166.635 29.15 167.135 28.88L167.145 28.89Z" fill="black"/>
<path d="M197.07 24.0199H184.504C184.504 25.8199 184.604 27.0699 184.794 27.7799C184.984 28.4899 185.455 28.9699 186.195 29.2199C186.935 29.4799 188.216 29.5999 190.047 29.5999C191.998 29.5999 194.099 29.4799 196.35 29.2399V33.4299C195.48 33.6399 194.339 33.8099 192.928 33.9299C191.518 34.0499 190.147 34.1099 188.826 34.1099C185.855 34.1099 183.684 33.7299 182.313 32.9599C180.942 32.1899 180.062 31.0199 179.652 29.4499C179.241 27.8699 179.041 25.4999 179.041 22.3099C179.041 19.1199 179.241 16.8699 179.652 15.2599C180.062 13.6499 180.922 12.4499 182.243 11.6399C183.564 10.8299 185.625 10.4199 188.416 10.4199C191.208 10.4199 193.118 10.8099 194.339 11.5899C195.56 12.3699 196.31 13.5299 196.61 15.0799C196.91 16.6299 197.06 19.0299 197.06 22.3099V24.0199H197.07ZM185.805 15.2899C185.295 15.5599 184.954 16.0599 184.794 16.7799C184.624 17.4999 184.534 18.6899 184.504 20.3399H191.938C191.938 18.6899 191.838 17.4899 191.648 16.7399C191.448 15.9899 191.107 15.4999 190.607 15.2499C190.107 15.0099 189.357 14.8899 188.336 14.8899C187.165 14.8899 186.325 15.0199 185.815 15.2999H185.805V15.2899Z" fill="black"/>
</svg>
