<svg width="18" height="18" viewBox="0 0 18 18" fill="none" xmlns="http://www.w3.org/2000/svg">
<g clip-path="url(#clip0_14185_1696)">
<path d="M10.2471 10.0963C10.2203 10.0963 10.1943 10.0869 10.1735 10.0674C10.1319 10.0274 10.131 9.96192 10.1709 9.9211C10.3303 9.75955 10.5106 9.6405 10.7073 9.56738C10.9595 9.47299 11.1502 9.48235 11.6104 9.50446C11.7057 9.50871 11.8123 9.51381 11.9345 9.51891C12.0601 9.52401 12.3773 9.53592 12.6079 9.53762C12.8332 9.53932 13.218 9.53167 13.965 9.44408C14.5898 9.37096 15.0024 9.32249 15.5778 9.19835C15.5865 9.19665 16.4895 8.99683 17.4567 8.47389C17.5407 8.42883 17.7947 8.29108 17.7869 8.19755C17.7799 8.11166 17.5607 8.01388 17.4029 7.97562C16.415 8.02663 15.4383 8.13207 14.4997 8.28938C14.4105 8.30468 12.2993 8.65246 11.1398 8.43053C10.5409 8.31574 10.1622 7.98412 10.1466 7.96966C10.1301 7.95521 10.1163 7.94245 10.1093 7.93565C10.0677 7.89569 10.066 7.83107 10.1067 7.7894C10.1466 7.74859 10.2133 7.74689 10.2558 7.78685C10.2627 7.7928 10.274 7.80386 10.2887 7.81661C10.2922 7.82001 10.6423 8.12442 11.1805 8.22731C12.3019 8.44158 14.4434 8.08871 14.465 8.0853C15.4157 7.9263 16.4063 7.82001 17.4081 7.76814C17.4177 7.76814 17.4281 7.76814 17.4376 7.77069C17.5269 7.7911 17.9749 7.90674 17.9975 8.18054C18.0157 8.40672 17.7297 8.56147 17.5589 8.65416C16.6524 9.14393 15.7763 9.36756 15.6237 9.39817C15.0379 9.52656 14.621 9.57503 13.9901 9.64901C13.231 9.73829 12.8366 9.74594 12.6061 9.74339C12.3721 9.74169 12.0523 9.72979 11.9258 9.72468C11.8027 9.71958 11.6953 9.71448 11.6 9.71023C11.1588 9.68897 10.9933 9.68047 10.7827 9.75955C10.6155 9.82247 10.4603 9.9245 10.3225 10.064C10.3017 10.0852 10.274 10.0954 10.2471 10.0954V10.0963Z" fill="white"/>
<path d="M6.80917 8.97412C6.79183 8.97412 6.7745 8.96987 6.75803 8.96136C6.7069 8.9333 6.6887 8.87123 6.71644 8.82106C6.78057 8.70712 6.80657 8.59829 6.79357 8.4971C6.74677 8.12892 6.20079 7.89084 5.99453 7.80155L5.97633 7.7939C5.95206 7.7837 3.51335 6.69616 1.52529 3.84511C1.3459 3.58747 1.32164 3.37319 1.3095 3.27031L1.3069 3.24735C1.27484 2.99311 1.4005 2.78649 1.46723 2.6751C1.4941 2.63003 1.55216 2.61217 1.60069 2.63343C1.74195 2.69465 1.87975 2.76693 2.01061 2.84856C2.24633 2.99481 2.46473 3.17252 2.65799 3.37659C3.03411 3.77283 3.45616 4.12911 3.86521 4.47433C4.133 4.70051 4.40945 4.93434 4.67118 5.17668C5.47455 5.92239 6.59077 6.56437 7.98779 7.0856C8.04239 7.10601 8.06925 7.16553 8.04845 7.2191C8.02765 7.27267 7.96699 7.29903 7.91239 7.27862C6.48938 6.74718 5.35062 6.09075 4.52645 5.32633C4.26819 5.0874 3.99347 4.85442 3.72741 4.62994C3.31403 4.28131 2.88764 3.92079 2.50806 3.52114C2.43613 3.44547 2.23073 3.22864 1.89795 3.02287C1.80262 2.96335 1.70295 2.90978 1.60156 2.86131C1.54869 2.9574 1.49843 3.08154 1.51663 3.22184L1.51923 3.2482C1.52963 3.34088 1.54956 3.51434 1.69949 3.72947C3.65462 6.53291 6.03873 7.59578 6.06213 7.60599L6.08033 7.61364C6.31605 7.71567 6.94176 7.98777 7.00329 8.47244C7.02149 8.61784 6.98769 8.7692 6.90103 8.9214C6.88196 8.95541 6.84556 8.97497 6.80917 8.97497V8.97412Z" fill="white"/>
<path d="M10.1232 7.83119C10.1171 7.83119 10.1111 7.83119 10.105 7.82949C10.0478 7.81929 10.0097 7.76572 10.0192 7.7096C10.2931 6.18501 10.5643 4.86959 10.8252 3.79992C11.223 2.16734 11.2654 1.99643 11.281 1.96412C11.2836 1.95902 11.5401 1.41653 11.6355 0.544969C11.6441 0.469292 11.6476 0.360454 11.5852 0.29328C11.5566 0.262669 11.515 0.241412 11.4604 0.230358C11.4569 0.230358 11.4535 0.228657 11.45 0.227807C11.3755 0.204849 11.3053 0.200598 11.2412 0.214202C11.1649 0.231208 11.0384 0.352801 10.8659 0.57643C10.0192 1.67332 9.67341 3.05846 9.33889 4.39768C9.19676 4.96568 9.0503 5.55324 8.86657 6.11528C8.86051 6.13399 8.85357 6.1578 8.84577 6.18501C8.79898 6.34827 8.71231 6.65352 8.47052 6.93072C8.39166 7.02085 8.30326 7.10248 8.2062 7.17476C8.1594 7.20962 8.09353 7.20027 8.05887 7.15435C8.02334 7.10843 8.03287 7.04381 8.07967 7.0098C8.1646 6.94688 8.2426 6.8746 8.31106 6.79637C8.52252 6.55404 8.59878 6.28789 8.64385 6.12974C8.65251 6.09998 8.65945 6.07362 8.66638 6.05236C8.84751 5.49797 8.9931 4.91381 9.13436 4.34921C9.47408 2.98958 9.82507 1.58319 10.6986 0.452286C10.917 0.169987 11.0609 0.0424418 11.1961 0.0126813C11.2957 -0.00942651 11.4015 -0.00347441 11.5089 0.028837C11.6043 0.0492442 11.6823 0.0909089 11.7403 0.153831C11.8738 0.297532 11.8521 0.500753 11.8443 0.567077C11.7447 1.47605 11.4821 2.02959 11.4708 2.05255C11.4561 2.09847 11.2957 2.75575 11.0297 3.84498C10.7688 4.91381 10.4984 6.22497 10.2255 7.74531C10.2168 7.79548 10.1717 7.83034 10.1215 7.83034L10.1232 7.83119Z" fill="white"/>
<path d="M0.842359 13.9074C0.435907 13.9074 0.133452 13.7646 0.00952284 13.5044C-0.00867648 13.4661 -0.00174341 13.4219 0.0277222 13.3913C1.03215 12.3156 2.3529 11.5912 3.63032 10.8914C4.67028 10.3217 5.74491 9.73243 6.64101 8.95696C6.68434 8.91954 6.75107 8.92294 6.79007 8.96631C6.8282 9.00882 6.82474 9.0743 6.78054 9.11256C5.86711 9.90249 4.78208 10.4968 3.73258 11.0725C2.49156 11.7527 1.20981 12.4551 0.233981 13.4763C0.433307 13.7595 0.955888 13.7042 1.11882 13.6795C2.5037 13.4661 3.73258 12.7034 4.92074 11.9662C5.42512 11.6533 5.94597 11.3301 6.47462 11.0504L6.50668 11.0334C6.64534 10.9586 6.93393 10.8038 7.32738 10.7341C7.54318 10.6958 7.76504 10.6865 7.98689 10.706C8.04496 10.7111 8.08742 10.7613 8.08222 10.8183C8.07702 10.8752 8.02589 10.9169 7.96783 10.9118C7.76504 10.8939 7.56138 10.9033 7.36378 10.9373C7.00413 11.0011 6.74587 11.1397 6.60635 11.2145L6.57255 11.2324C6.04997 11.5087 5.53172 11.8301 5.0308 12.1405C3.82445 12.8887 2.57736 13.6625 1.14915 13.8827C1.03995 13.8998 0.936822 13.9074 0.838892 13.9074H0.842359Z" fill="white"/>
<path d="M11.7611 18.0002C11.4768 18.0002 11.1648 17.814 10.8893 17.4696C9.99662 16.3532 9.62137 14.9536 9.25825 13.599C9.10745 13.037 8.95146 12.4554 8.7608 11.9035C8.75387 11.8823 8.74607 11.8568 8.73653 11.827C8.68887 11.6689 8.60827 11.4053 8.39248 11.1655C8.32228 11.0881 8.24342 11.0175 8.15762 10.9555C8.11082 10.9223 8.10043 10.8568 8.13422 10.8109C8.16889 10.765 8.23475 10.7548 8.28155 10.7879C8.37948 10.8585 8.47048 10.9384 8.55021 11.0277C8.7972 11.3015 8.88906 11.6042 8.93846 11.7666C8.94626 11.7938 8.95406 11.8168 8.96013 11.8355C9.15339 12.3942 9.31025 12.9792 9.46191 13.5446C9.81983 14.8779 10.189 16.2571 11.0548 17.3395C11.157 17.467 11.5011 17.8565 11.8434 17.7825C11.8391 16.3829 11.3884 15.0114 10.9525 13.6841C10.5842 12.5617 10.2029 11.401 10.0833 10.2123C10.0772 10.1553 10.1197 10.1052 10.1777 10.0992C10.2358 10.0932 10.2869 10.1349 10.293 10.1919C10.4109 11.3585 10.7879 12.5081 11.1536 13.6203C11.6025 14.9867 12.0661 16.3999 12.054 17.859C12.054 17.9007 12.028 17.9381 11.9881 17.9543C11.9154 17.9832 11.8391 17.9976 11.7602 17.9976L11.7611 18.0002Z" fill="white"/>
<path d="M11.0426 1.43948C10.9906 1.43948 10.9412 1.42588 10.8996 1.39952C10.7523 1.30514 10.7679 1.09936 10.8138 0.984573C10.8632 0.86128 10.9837 0.733735 11.131 0.746489C11.2012 0.752441 11.2471 0.788154 11.2653 0.801759C11.3867 0.894441 11.4508 1.10191 11.3529 1.26177C11.3017 1.3451 11.2125 1.40887 11.1145 1.43098C11.0903 1.43608 11.066 1.43948 11.0426 1.43948ZM11.0149 1.22606C11.0261 1.23286 11.0452 1.23456 11.0669 1.22946C11.1085 1.22011 11.1509 1.19035 11.1726 1.15548C11.2142 1.08746 11.1778 0.997328 11.1353 0.964166C11.1284 0.959064 11.1206 0.952262 11.1128 0.952262C11.0885 0.948861 11.0339 1.00073 11.0105 1.06025C10.9871 1.11892 10.9845 1.20735 11.0149 1.22691V1.22606Z" fill="white"/>
<path d="M10.7774 2.32475C10.7341 2.32475 10.6908 2.31284 10.6552 2.28903C10.5989 2.25162 10.5634 2.187 10.559 2.11217C10.5538 2.03139 10.585 1.95402 10.6422 1.9047C10.696 1.85878 10.774 1.83752 10.8502 1.84858C10.9135 1.85793 10.9646 1.88769 10.9923 1.93276C11.0097 1.95912 11.0166 1.99228 11.0149 2.0399C11.0123 2.10707 11.0088 2.21931 10.9109 2.28393C10.871 2.31029 10.8242 2.3239 10.7783 2.3239L10.7774 2.32475ZM10.7731 2.11727C10.7774 2.11727 10.787 2.11727 10.7913 2.11387C10.7982 2.10707 10.8008 2.07646 10.8017 2.0535C10.793 2.0535 10.7844 2.0569 10.7792 2.06115C10.7662 2.07306 10.7644 2.10707 10.7722 2.11812L10.7731 2.11727Z" fill="white"/>
<path d="M10.319 3.86392C10.2739 3.86392 10.2289 3.85286 10.189 3.8299C10.0789 3.76698 10.0512 3.63944 10.0616 3.54931C10.0746 3.43196 10.1552 3.36394 10.2081 3.31972C10.2462 3.28741 10.293 3.25425 10.3563 3.25085C10.4377 3.24575 10.5192 3.29507 10.5582 3.37414C10.5894 3.43792 10.5894 3.49489 10.585 3.5476C10.5772 3.63859 10.566 3.76273 10.4516 3.82905C10.4117 3.85201 10.3649 3.86392 10.319 3.86392ZM10.2947 3.65134C10.3103 3.65984 10.332 3.65814 10.3441 3.65134C10.3658 3.63859 10.371 3.57822 10.3753 3.5289C10.3788 3.49148 10.3753 3.47873 10.3693 3.46428C10.3693 3.46257 10.3675 3.46172 10.3667 3.46002C10.3632 3.46257 10.358 3.46598 10.3502 3.47278C10.3025 3.51359 10.2748 3.5374 10.2713 3.57226C10.2696 3.58417 10.2705 3.63689 10.2947 3.65049V3.65134Z" fill="white"/>
<path d="M9.41948 6.62054C9.38395 6.62054 9.34929 6.61374 9.31636 6.59674C9.22796 6.55167 9.17336 6.44368 9.16816 6.30678C9.16383 6.18264 9.20369 6.02363 9.32762 5.94966C9.43422 5.88589 9.60668 5.88503 9.69421 5.98537C9.72714 6.02278 9.73754 6.0636 9.74447 6.10271C9.76527 6.2192 9.793 6.37906 9.67428 6.5049C9.61274 6.57038 9.51395 6.62139 9.41948 6.62139V6.62054ZM9.41342 6.41307C9.42815 6.41817 9.48448 6.40032 9.52001 6.3629C9.56421 6.31614 9.55555 6.24301 9.53735 6.13672C9.53475 6.12142 9.53301 6.11632 9.53215 6.11632C9.52261 6.10951 9.46715 6.10781 9.43682 6.12567C9.40302 6.14608 9.37875 6.2141 9.37789 6.28723C9.37789 6.3663 9.40389 6.40712 9.41255 6.41307H9.41342Z" fill="white"/>
<path d="M9.4455 7.27074C9.42904 7.27074 9.41257 7.26734 9.39697 7.25884L9.06592 7.08878C9.01392 7.06242 8.99399 7.00034 9.02085 6.94933C9.04772 6.89916 9.11098 6.87875 9.16298 6.90511L9.49404 7.07517C9.54603 7.10153 9.56597 7.1636 9.5391 7.21462C9.52003 7.25033 9.48364 7.26989 9.4455 7.26989V7.27074Z" fill="white"/>
<path d="M9.15342 8.19671C9.14562 8.19671 9.13782 8.19671 9.13002 8.19416C8.96536 8.15844 8.8241 8.0479 8.75044 7.89995C8.7253 7.84893 8.74697 7.78686 8.79984 7.7622C8.85183 7.73754 8.9151 7.7588 8.94023 7.81067C8.9853 7.90165 9.07542 7.97138 9.17595 7.99348C9.23315 8.00624 9.26868 8.06151 9.25569 8.11678C9.24442 8.16525 9.20109 8.19756 9.15256 8.19756L9.15342 8.19671Z" fill="white"/>
<path d="M7.94438 8.71651C7.91232 8.71651 7.88112 8.70291 7.86032 8.6757C7.82479 8.63063 7.83432 8.56516 7.88025 8.53115C7.93832 8.48778 7.98078 8.42571 7.99985 8.35684C8.01545 8.30157 8.07265 8.26926 8.12898 8.28456C8.18531 8.29987 8.21824 8.35599 8.20264 8.41126C8.17144 8.52349 8.10211 8.62468 8.00765 8.69526C7.98858 8.70971 7.96605 8.71651 7.94352 8.71651H7.94438Z" fill="white"/>
<path d="M7.21217 7.94168C7.1619 7.94168 7.1177 7.90682 7.10904 7.85665C7.09864 7.80053 7.1359 7.74696 7.19397 7.73591C7.26157 7.724 7.32743 7.68744 7.3725 7.63727C7.41149 7.59476 7.47736 7.5905 7.52156 7.62877C7.56489 7.66703 7.56922 7.73165 7.53022 7.77502C7.45309 7.8609 7.3465 7.91957 7.2321 7.93998C7.22603 7.94083 7.2191 7.94168 7.21303 7.94168H7.21217Z" fill="white"/>
<path d="M9.30162 9.22316C9.25396 9.22316 9.21062 9.1917 9.19936 9.14408C9.17942 9.06075 9.18202 8.97402 9.20889 8.89324C9.22622 8.83882 9.28602 8.80906 9.34149 8.82607C9.39695 8.84308 9.42728 8.90175 9.40995 8.95617C9.39522 9.00038 9.39348 9.05055 9.40475 9.09561C9.41862 9.15088 9.38395 9.207 9.32675 9.22061C9.31809 9.22231 9.31029 9.22316 9.30162 9.22316Z" fill="white"/>
<path d="M10.6579 9.1968C10.6085 9.1968 10.5643 9.16194 10.5548 9.11262L10.5054 8.85243C10.495 8.79631 10.5323 8.74274 10.5895 8.73169C10.6467 8.72148 10.7013 8.75805 10.7125 8.81417L10.7619 9.07436C10.7723 9.13048 10.7351 9.18405 10.6779 9.1951C10.6718 9.19595 10.6649 9.1968 10.6588 9.1968H10.6579Z" fill="white"/>
<path d="M8.47827 9.60826C8.47827 9.60826 8.47133 9.60826 8.46787 9.60826C8.34827 9.59721 8.24774 9.50112 8.23214 9.38463C8.22434 9.32766 8.26594 9.27664 8.32314 9.26899C8.38034 9.26134 8.4332 9.30215 8.441 9.35827C8.4436 9.37868 8.46613 9.40079 8.4878 9.40249C8.54586 9.40759 8.58833 9.45861 8.58313 9.51473C8.57793 9.5683 8.532 9.60826 8.47827 9.60826Z" fill="white"/>
<path d="M8.34831 10.3234C8.33877 10.3234 8.32837 10.3217 8.31884 10.3191C8.17931 10.2791 8.07705 10.1473 8.07532 10.0045C8.07532 9.94752 8.12125 9.90075 8.17931 9.8999H8.18018C8.23824 9.8999 8.28504 9.94582 8.28591 10.0019C8.28591 10.0538 8.32664 10.1057 8.37777 10.1201C8.43324 10.1363 8.46617 10.1933 8.4497 10.2485C8.4367 10.2936 8.39424 10.3234 8.34831 10.3234Z" fill="white"/>
<path d="M4.27337 11.9339C4.23783 11.9339 4.20317 11.9262 4.17024 11.9101C4.08184 11.865 4.02638 11.757 4.02204 11.6193C4.01771 11.4951 4.05757 11.3361 4.1815 11.2622C4.2881 11.1984 4.46056 11.1975 4.54809 11.2979C4.58102 11.3353 4.59142 11.3761 4.59835 11.4152C4.61829 11.5317 4.64689 11.6916 4.52816 11.8174C4.46576 11.8829 4.36783 11.9339 4.27337 11.9339ZM4.2673 11.7264C4.28203 11.7315 4.33836 11.7137 4.3739 11.6763C4.41809 11.6295 4.40943 11.5564 4.39123 11.4501C4.38863 11.4348 4.3869 11.4297 4.38603 11.4288C4.3765 11.422 4.32103 11.4203 4.2907 11.4382C4.2569 11.4586 4.23177 11.5266 4.23177 11.5997C4.23177 11.678 4.25777 11.7196 4.26643 11.7256L4.2673 11.7264Z" fill="white"/>
<path d="M16.9227 8.54458C16.8777 8.54458 16.8326 8.53353 16.7928 8.51057C16.6827 8.44765 16.655 8.3201 16.6654 8.22997C16.6784 8.11263 16.759 8.0446 16.8118 8.00039C16.85 7.96808 16.8967 7.93491 16.96 7.93151C17.0423 7.92641 17.1229 7.97573 17.1619 8.05481C17.1931 8.11858 17.1931 8.17555 17.1888 8.22742C17.181 8.3184 17.1697 8.44254 17.0553 8.50972C17.0155 8.53268 16.9687 8.54458 16.9227 8.54458ZM16.8985 8.332C16.9141 8.34051 16.9357 8.33881 16.9479 8.332C16.9695 8.31925 16.9747 8.25888 16.9791 8.20956C16.9825 8.17215 16.9791 8.15939 16.973 8.14494C16.973 8.14324 16.9713 8.14239 16.9704 8.14154C16.9669 8.14409 16.9617 8.14749 16.9539 8.15429C16.9063 8.19511 16.8785 8.21892 16.8751 8.25378C16.8733 8.26568 16.8742 8.3184 16.8985 8.332Z" fill="white"/>
<path d="M16.2616 8.6851C16.2182 8.6851 16.1749 8.67319 16.1394 8.64939C16.083 8.61197 16.0475 8.54735 16.0432 8.47252C16.038 8.39174 16.0692 8.31437 16.1255 8.26505C16.1792 8.21913 16.2572 8.19788 16.3335 8.20893C16.3968 8.21828 16.4479 8.24804 16.4756 8.29311C16.4929 8.32117 16.4999 8.35348 16.4981 8.40025C16.4955 8.46742 16.4921 8.57966 16.3942 8.64428C16.3543 8.67064 16.3075 8.68425 16.2616 8.68425V8.6851ZM16.2572 8.47848C16.2616 8.47848 16.2711 8.47848 16.2754 8.47507C16.2824 8.46827 16.285 8.43766 16.2858 8.4147C16.2772 8.4147 16.2685 8.4181 16.2633 8.42236C16.2503 8.43341 16.2494 8.46827 16.2564 8.47933L16.2572 8.47848Z" fill="white"/>
<path d="M14.9485 9.06437C14.9035 9.06437 14.8584 9.05332 14.8185 9.03036C14.7076 8.96744 14.6808 8.83989 14.6912 8.74976C14.7042 8.63242 14.7847 8.56439 14.8376 8.51933C14.8757 8.48702 14.9225 8.45386 14.9858 8.45045C15.0681 8.4462 15.1496 8.49467 15.1877 8.57375C15.2189 8.63752 15.2189 8.69449 15.2146 8.74636C15.2068 8.83734 15.1955 8.96148 15.0811 9.02781C15.0413 9.05077 14.9945 9.06267 14.9485 9.06267V9.06437ZM14.9243 8.8518C14.9399 8.8603 14.9624 8.8586 14.9737 8.8518C14.9953 8.83904 15.0005 8.77867 15.0049 8.72935C15.0083 8.69194 15.0049 8.67919 14.9988 8.66473C14.9988 8.66303 14.9971 8.66218 14.9962 8.66133C14.9927 8.66388 14.9875 8.66728 14.9797 8.67408C14.9321 8.7149 14.9052 8.73871 14.9009 8.77357C14.8991 8.78547 14.9 8.83819 14.9243 8.8518Z" fill="white"/>
<path d="M3.58614 12.087C3.54281 12.087 3.49948 12.075 3.46395 12.0512C3.40761 12.0138 3.37208 11.9492 3.36775 11.8744C3.36255 11.7936 3.39375 11.7162 3.45008 11.6669C3.50381 11.621 3.58181 11.5997 3.65807 11.6108C3.72134 11.6201 3.77247 11.6499 3.8002 11.695C3.81753 11.7213 3.82447 11.7545 3.82273 11.8021C3.82013 11.8693 3.81667 11.9815 3.71874 12.0461C3.67887 12.0725 3.63207 12.0861 3.58614 12.0861V12.087ZM3.58181 11.8803C3.58614 11.8803 3.59567 11.8803 3.60001 11.8769C3.60694 11.8701 3.60954 11.8395 3.61127 11.8166C3.60261 11.8166 3.59394 11.82 3.58874 11.8242C3.57574 11.8361 3.57487 11.8701 3.58181 11.8812V11.8803Z" fill="white"/>
<path d="M2.11377 13.0718C2.06177 13.0718 2.01237 13.0582 1.97078 13.0318C1.82345 12.9375 1.83905 12.7317 1.88498 12.6169C1.93438 12.4936 2.05397 12.3661 2.20217 12.3788C2.2715 12.3848 2.3183 12.4205 2.33563 12.4341C2.45696 12.5268 2.52109 12.7342 2.42403 12.8941C2.37289 12.9774 2.28363 13.0412 2.1857 13.0633C2.16144 13.0684 2.13717 13.0718 2.11377 13.0718ZM2.18224 12.5846C2.15624 12.5846 2.1051 12.6339 2.08171 12.6926C2.05831 12.7512 2.05571 12.8397 2.08691 12.8592C2.09817 12.866 2.11724 12.8677 2.1389 12.8626C2.1805 12.8533 2.22297 12.8235 2.24377 12.7887C2.28536 12.7206 2.24983 12.6297 2.2065 12.5973C2.20043 12.5922 2.19177 12.5854 2.18397 12.5854C2.18397 12.5854 2.1831 12.5854 2.18224 12.5854V12.5846Z" fill="white"/>
<path d="M6.19214 7.4136C6.14014 7.4136 6.09074 7.4 6.04915 7.37364C5.90182 7.27926 5.91742 7.07348 5.96335 6.95869C6.01275 6.8354 6.13408 6.70786 6.28054 6.72061C6.34987 6.72656 6.39667 6.76228 6.414 6.77588C6.53533 6.86941 6.59946 7.07604 6.5024 7.23589C6.45126 7.31922 6.362 7.38299 6.26407 7.4051C6.23981 7.4102 6.21554 7.4136 6.19214 7.4136ZM6.16441 7.20018C6.17567 7.20783 6.19474 7.20868 6.21641 7.20358C6.258 7.19423 6.30047 7.16447 6.32127 7.1296C6.36287 7.06158 6.32647 6.97145 6.284 6.93829C6.27794 6.93319 6.26927 6.92638 6.26147 6.92638C6.23461 6.92298 6.18261 6.974 6.15921 7.03437C6.13581 7.09304 6.13321 7.18147 6.16441 7.20103V7.20018Z" fill="white"/>
<path d="M9.63696 11.5962C9.58497 11.5962 9.53557 11.5826 9.49397 11.5563C9.34664 11.4619 9.36224 11.2561 9.40817 11.1413C9.45757 11.018 9.5763 10.8905 9.72536 10.9032C9.79469 10.9092 9.84149 10.9449 9.85882 10.9585C9.98015 11.0512 10.0443 11.2587 9.94722 11.4185C9.89609 11.5027 9.80682 11.5656 9.70803 11.5877C9.68376 11.5928 9.6595 11.5962 9.6361 11.5962H9.63696ZM9.60923 11.3828C9.6205 11.3896 9.63956 11.3913 9.66123 11.3862C9.70283 11.3768 9.74529 11.3471 9.76696 11.3122C9.80856 11.2442 9.77216 11.1541 9.72969 11.1209C9.72363 11.1158 9.7141 11.109 9.70716 11.109C9.6855 11.1056 9.6283 11.1566 9.6049 11.217C9.5815 11.2757 9.5789 11.3641 9.6101 11.3836L9.60923 11.3828Z" fill="white"/>
<path d="M11.0956 16.6856C11.0436 16.6856 10.9942 16.672 10.9526 16.6456C10.8053 16.5512 10.8209 16.3455 10.8668 16.2307C10.9162 16.1074 11.0367 15.9798 11.184 15.9926C11.2533 15.9985 11.3001 16.0342 11.3174 16.0479C11.4388 16.1405 11.5029 16.348 11.4058 16.5079C11.3547 16.5912 11.2654 16.655 11.1675 16.6771C11.1432 16.6822 11.119 16.6856 11.0956 16.6856ZM11.0679 16.4722C11.0791 16.4798 11.0982 16.4807 11.1198 16.4756C11.1614 16.4662 11.2039 16.4364 11.2247 16.4016C11.2663 16.3336 11.2308 16.2426 11.1874 16.2103C11.1814 16.2052 11.1727 16.1984 11.1649 16.1984C11.1415 16.1941 11.086 16.246 11.0627 16.3063C11.0393 16.365 11.0367 16.4534 11.0679 16.473V16.4722Z" fill="white"/>
<path d="M10.1821 14.1966C10.1465 14.1966 10.1119 14.1889 10.0789 14.1728C9.99053 14.1277 9.93507 14.0197 9.93073 13.882C9.9264 13.7578 9.96627 13.5988 10.0902 13.5249C10.1968 13.4611 10.3693 13.4602 10.4568 13.5606C10.4897 13.598 10.5001 13.6388 10.507 13.6779C10.5278 13.7944 10.5556 13.9543 10.4368 14.0801C10.3753 14.1456 10.2765 14.1966 10.1821 14.1966ZM10.176 13.9891C10.1907 13.9942 10.2471 13.9764 10.2826 13.9389C10.3268 13.8922 10.3181 13.8191 10.2999 13.7128C10.2973 13.6975 10.2956 13.6924 10.2947 13.6915C10.2852 13.6847 10.2297 13.683 10.1994 13.7009C10.1656 13.7213 10.1405 13.7893 10.1405 13.8624C10.1405 13.9406 10.1665 13.9823 10.1751 13.9883L10.176 13.9891Z" fill="white"/>
<path d="M9.96199 13.2442C9.91866 13.2442 9.87533 13.2323 9.8398 13.2085C9.78347 13.1711 9.74794 13.1064 9.7436 13.0316C9.7384 12.9508 9.7696 12.8734 9.82593 12.8241C9.87966 12.7782 9.95766 12.757 10.0339 12.768C10.0972 12.7774 10.1483 12.8071 10.1761 12.8522C10.1934 12.8786 10.2003 12.9117 10.1986 12.9593C10.196 13.0265 10.1925 13.1387 10.0946 13.2034C10.0547 13.2297 10.0079 13.2433 9.96199 13.2433V13.2442ZM9.95766 13.0367C9.962 13.0367 9.97153 13.0367 9.97586 13.0333C9.98279 13.0265 9.98539 12.9959 9.98626 12.9729C9.97759 12.9729 9.96893 12.9763 9.96373 12.9806C9.95073 12.9925 9.94986 13.0265 9.9568 13.0376L9.95766 13.0367Z" fill="white"/>
<path d="M2.3182 4.085C2.27486 4.085 2.23153 4.0731 2.196 4.04929C2.13967 4.01187 2.10414 3.94725 2.0998 3.87243C2.0946 3.79165 2.1258 3.71427 2.18213 3.66495C2.23587 3.61904 2.31386 3.59778 2.39013 3.60883C2.45339 3.61819 2.50366 3.64795 2.53226 3.69301C2.54959 3.72022 2.55652 3.75338 2.55479 3.80015C2.55219 3.86732 2.54872 3.97956 2.45079 4.04419C2.41093 4.07055 2.36413 4.08415 2.3182 4.08415V4.085ZM2.31386 3.87838C2.31906 3.87838 2.32773 3.87838 2.33206 3.87498C2.339 3.86817 2.3416 3.83756 2.34246 3.81461C2.3338 3.81461 2.32513 3.81801 2.31993 3.82226C2.30693 3.83331 2.30606 3.86817 2.313 3.87923L2.31386 3.87838Z" fill="white"/>
<path d="M2.8313 4.9053C2.7793 4.9053 2.7299 4.8917 2.68831 4.86534C2.54098 4.77096 2.55658 4.56518 2.60251 4.45039C2.65191 4.3271 2.77064 4.19955 2.9197 4.21231C2.98903 4.21826 3.03583 4.25397 3.05316 4.26758C3.17449 4.36026 3.23862 4.56773 3.14156 4.72759C3.09042 4.81092 3.00116 4.87469 2.90323 4.8968C2.87897 4.9019 2.8547 4.9053 2.8313 4.9053ZM2.89976 4.41808C2.87377 4.41808 2.82177 4.4674 2.79837 4.52607C2.77497 4.58474 2.77237 4.67317 2.80357 4.69273C2.81483 4.69953 2.8339 4.70123 2.85557 4.69613C2.89716 4.68678 2.93963 4.65702 2.96043 4.62215C3.00203 4.55413 2.9665 4.46315 2.92316 4.43084C2.9171 4.42573 2.90756 4.41893 2.90063 4.41893C2.90063 4.41893 2.89976 4.41893 2.8989 4.41893L2.89976 4.41808Z" fill="white"/>
<path d="M3.66675 5.71575C3.61475 5.71575 3.56535 5.70214 3.52375 5.67578C3.37643 5.5814 3.39203 5.37563 3.43796 5.26084C3.48736 5.13754 3.60782 5.01085 3.75515 5.02275C3.82534 5.0287 3.87128 5.06442 3.88947 5.07802C4.0108 5.1707 4.07493 5.37818 3.977 5.53803C3.92587 5.62136 3.83661 5.68514 3.73868 5.70724C3.71441 5.71234 3.69015 5.71575 3.66675 5.71575ZM3.63902 5.50232C3.65028 5.50912 3.66935 5.51082 3.69102 5.50572C3.73261 5.49637 3.77508 5.46661 3.79675 5.43175C3.83834 5.36372 3.80194 5.27359 3.75948 5.24043C3.75255 5.23533 3.74475 5.22852 3.73695 5.22852C3.71268 5.22427 3.65808 5.27699 3.63468 5.33651C3.61128 5.39518 3.60869 5.48361 3.63902 5.50317V5.50232Z" fill="white"/>
</g>
<defs>
<clipPath id="clip0_14185_1696">
<rect width="18" height="18" fill="white"/>
</clipPath>
</defs>
</svg>
