<svg width="64" height="64" fill="none" xmlns="http://www.w3.org/2000/svg"><path d="M16.826 41.024a3.354 3.354 0 01-1.677-.493L4.813 34.502a2.56 2.56 0 010-4.73l4.205-2.431a26.442 26.442 0 015.881-2.349l7.424-1.786a19.578 19.578 0 016.368-.275l9.536 1.434a8.249 8.249 0 004.884-1.101l3.392-2.285a.96.96 0 111.075 1.594l-3.418 2.285a10.021 10.021 0 01-6.214 1.382l-9.536-1.408a17.92 17.92 0 00-5.632.243L15.36 26.88c-1.868.5-3.67 1.22-5.37 2.144l-4.23 2.413a1.043 1.043 0 00-.64.704 1.043 1.043 0 00.64.704l10.342 6.029a1.056 1.056 0 00.922.185 1.05 1.05 0 00.32-.883l.102-6.733a.96.96 0 011.92 0l-.083 6.759a2.821 2.821 0 01-1.28 2.56c-.363.189-.768.28-1.177.262zm37.811-8.294a4 4 0 01-1.517-.295l-1.645-.64a101.304 101.304 0 01-5.478-2.432l-2.56-1.28a.961.961 0 11.845-1.721l2.56 1.28a98.56 98.56 0 005.344 2.374l1.645.64a2.097 2.097 0 002.732-1.165l2.317-5.76a.961.961 0 011.865.342.96.96 0 01-.085.375l-2.317 5.76a4.026 4.026 0 01-3.706 2.522zm4.883 10.06a.96.96 0 01-.852-.55l-2.15-4.794a2.625 2.625 0 00-3.027-1.382l-.48.147c-1.613.487-4.263 1.28-5.895 1.709l-3.84 1.056a.96.96 0 01-.512-1.85l3.84-1.056a296.61 296.61 0 005.857-1.696l.48-.147a4.563 4.563 0 015.299 2.42l2.15 4.793a.96.96 0 01-.87 1.35zm-28.096.48a10.363 10.363 0 01-2.317-.236l-8.25-1.92a.96.96 0 01.442-1.87l8.25 1.92c1.762.327 3.578.213 5.286-.332l2.067-.774a10.464 10.464 0 015.805-.378l2.323.71a.967.967 0 11-.57 1.85l-2.322-.71a8.71 8.71 0 00-4.57.339l-2.06.755a12.378 12.378 0 01-4.084.646z" fill="#408F95"/><path d="M11.514 32.826a1.318 1.318 0 100-2.637 1.318 1.318 0 000 2.637zm12.589 3.308a.96.96 0 01-.423-1.824l3.7-1.785h-5.703a.96.96 0 01-.953-.967.947.947 0 01.966-.953h8.141c1.037 0 1.6.32 1.753.966.154.647-.236 1.203-1.145 1.645l-5.882 2.842a.96.96 0 01-.454.076z" fill="#408F95"/></svg>